<svg width="107" height="26" viewBox="0 0 107 26" fill="none" xmlns="http://www.w3.org/2000/svg">
<path d="M11.7422 19.248L17.543 0H23.4141L14.502 25.5938H9L0.123047 0H5.97656L11.7422 19.248Z" fill="#E0E0E0"/>
<path d="M23.9062 15.9082C23.9062 14.0215 24.2695 12.3398 24.9961 10.8633C25.7227 9.38672 26.7656 8.24414 28.125 7.43555C29.4961 6.62695 31.084 6.22266 32.8887 6.22266C35.4551 6.22266 37.5469 7.00781 39.1641 8.57812C40.793 10.1484 41.7012 12.2812 41.8887 14.9766L41.9238 16.2773C41.9238 19.1953 41.1094 21.5391 39.4805 23.3086C37.8516 25.0664 35.666 25.9453 32.9238 25.9453C30.1816 25.9453 27.9902 25.0664 26.3496 23.3086C24.7207 21.5508 23.9062 19.1602 23.9062 16.1367V15.9082ZM28.9863 16.2773C28.9863 18.082 29.3262 19.4648 30.0059 20.4258C30.6855 21.375 31.6582 21.8496 32.9238 21.8496C34.1543 21.8496 35.1152 21.3809 35.8066 20.4434C36.498 19.4941 36.8438 17.9824 36.8438 15.9082C36.8438 14.1387 36.498 12.7676 35.8066 11.7949C35.1152 10.8223 34.1426 10.3359 32.8887 10.3359C31.6465 10.3359 30.6855 10.8223 30.0059 11.7949C29.3262 12.7559 28.9863 14.25 28.9863 16.2773Z" fill="#E0E0E0"/>
<path d="M55.7402 11.3379C55.0488 11.2441 54.4395 11.1973 53.9121 11.1973C51.9902 11.1973 50.7305 11.8477 50.1328 13.1484V25.5938H45.0527V6.57422H49.8516L49.9922 8.8418C51.0117 7.0957 52.4238 6.22266 54.2285 6.22266C54.791 6.22266 55.3184 6.29883 55.8105 6.45117L55.7402 11.3379Z" fill="#E0E0E0"/>
<path d="M65.1621 1.89844V6.57422H68.4141V10.3008H65.1621V19.793C65.1621 20.4961 65.2969 21 65.5664 21.3047C65.8359 21.6094 66.3516 21.7617 67.1133 21.7617C67.6758 21.7617 68.1738 21.7207 68.6074 21.6387V25.4883C67.6113 25.793 66.5859 25.9453 65.5312 25.9453C61.9688 25.9453 60.1523 24.1465 60.082 20.5488V10.3008H57.3047V6.57422H60.082V1.89844H65.1621Z" fill="#E0E0E0"/>
<path d="M79.998 25.9453C77.209 25.9453 74.9355 25.0898 73.1777 23.3789C71.4316 21.668 70.5586 19.3887 70.5586 16.541V16.0488C70.5586 14.1387 70.9277 12.4336 71.666 10.9336C72.4043 9.42188 73.4473 8.26172 74.7949 7.45312C76.1543 6.63281 77.7012 6.22266 79.4355 6.22266C82.0371 6.22266 84.082 7.04297 85.5703 8.68359C87.0703 10.3242 87.8203 12.6504 87.8203 15.6621V17.7363H75.709C75.873 18.9785 76.3652 19.9746 77.1855 20.7246C78.0176 21.4746 79.0664 21.8496 80.332 21.8496C82.2891 21.8496 83.8184 21.1406 84.9199 19.7227L87.416 22.5176C86.6543 23.5957 85.623 24.4395 84.3223 25.0488C83.0215 25.6465 81.5801 25.9453 79.998 25.9453ZM79.418 10.3359C78.4102 10.3359 77.5898 10.6758 76.957 11.3555C76.3359 12.0352 75.9375 13.0078 75.7617 14.2734H82.8281V13.8691C82.8047 12.7441 82.5 11.877 81.9141 11.2676C81.3281 10.6465 80.4961 10.3359 79.418 10.3359Z" fill="#E0E0E0"/>
<path d="M97.9629 12.252L101.162 6.57422H106.594L101.18 15.8906L106.822 25.5938H101.373L97.9805 19.6172L94.6055 25.5938H89.1387L94.7812 15.8906L89.3848 6.57422H94.834L97.9629 12.252Z" fill="#E0E0E0"/>
</svg>
