<svg width="75" height="75" viewBox="0 0 75 75" fill="none" xmlns="http://www.w3.org/2000/svg">
<circle cx="37.5" cy="37.5" r="37.5" fill="#F5F9FC"/>
<path fill-rule="evenodd" clip-rule="evenodd" d="M42.1875 16.9375C40.125 16.9375 38.4375 18.625 38.4375 20.6875C38.4375 22.75 40.125 24.4375 42.1875 24.4375C44.25 24.4375 45.9375 22.75 45.9375 20.6875C45.9375 18.625 44.25 16.9375 42.1875 16.9375ZM30 42.25L21.5625 50.6875L24.375 53.5L30.9375 46.9375H34.6875L30 42.25ZM47.8125 60.0625L53.4375 54.4562L47.8125 48.8125H45L33.2063 37.0187C34.8188 36.325 36.3188 35.3875 37.5 34.4125V38.6688L44.2125 45.3813C45.2812 44.35 45.9375 42.9062 45.9375 41.3313V30.55C45.9375 28.225 44.0438 26.3313 41.7188 26.3125H41.6625C41.025 26.3125 40.4062 26.4812 39.8625 26.7437C39.375 26.9688 38.925 27.2875 38.5688 27.6812L35.9438 30.5875C33.9563 32.7812 30.3 34.4688 27.1875 34.4125V38.4625C27.75 38.4625 28.3125 38.425 28.8938 38.3312L42.2063 51.625V54.4188L47.8125 60.0625Z" fill="#333333"/>
</svg>
