<svg width="75" height="75" viewBox="0 0 75 75" fill="none" xmlns="http://www.w3.org/2000/svg">
<circle cx="37.5" cy="37.5" r="37.5" fill="#F5F9FC"/>
<path fill-rule="evenodd" clip-rule="evenodd" d="M29.775 21.4875L27.375 18.6188L18.75 25.8375L21.1688 28.7063L29.775 21.4875ZM56.25 25.8563L47.625 18.6188L45.2062 21.4875L53.8312 28.725L56.25 25.8563ZM35.625 30.1313H38.4375V39.975L45.9375 44.4187L44.5312 46.725L35.625 41.3813V30.1313ZM37.5 22.6313C28.1813 22.6313 20.625 30.1875 20.625 39.5063C20.625 48.825 28.1625 56.3813 37.5 56.3813C46.8188 56.3813 54.375 48.825 54.375 39.5063C54.375 30.1875 46.8188 22.6313 37.5 22.6313ZM24.375 39.5063C24.375 46.7625 30.2438 52.6313 37.5 52.6313C44.7563 52.6313 50.625 46.7625 50.625 39.5063C50.625 32.25 44.7563 26.3813 37.5 26.3813C30.2438 26.3813 24.375 32.25 24.375 39.5063Z" fill="#333333"/>
</svg>
